<svg width="73" height="73" viewBox="0 0 73 73" fill="none" xmlns="http://www.w3.org/2000/svg">
<path d="M59.6167 63.875L40.4542 44.7125C38.9333 45.9292 37.1844 46.8924 35.2073 47.6021C33.2302 48.3118 31.1264 48.6667 28.8958 48.6667C23.3701 48.6667 18.6941 46.7535 14.8677 42.927C11.0392 39.0986 9.125 34.4215 9.125 28.8958C9.125 23.3701 11.0392 18.6931 14.8677 14.8646C18.6941 11.0382 23.3701 9.125 28.8958 9.125C34.4215 9.125 39.0986 11.0382 42.927 14.8646C46.7535 18.6931 48.6667 23.3701 48.6667 28.8958C48.6667 31.1264 48.3118 33.2302 47.6021 35.2073C46.8924 37.1844 45.9292 38.9333 44.7125 40.4542L63.875 59.6167L59.6167 63.875ZM28.8958 42.5833C32.6979 42.5833 35.9302 41.2531 38.5927 38.5927C41.2531 35.9302 42.5833 32.6979 42.5833 28.8958C42.5833 25.0938 41.2531 21.8615 38.5927 19.199C35.9302 16.5386 32.6979 15.2083 28.8958 15.2083C25.0938 15.2083 21.8615 16.5386 19.199 19.199C16.5386 21.8615 15.2083 25.0938 15.2083 28.8958C15.2083 32.6979 16.5386 35.9302 19.199 38.5927C21.8615 41.2531 25.0938 42.5833 28.8958 42.5833Z" fill="#007AFD"/>
</svg>
